<?xml version="1.0" standalone="no"?>
<!DOCTYPE svg PUBLIC "-//W3C//DTD SVG 20010904//EN"
 "http://www.w3.org/TR/2001/REC-SVG-20010904/DTD/svg10.dtd">
<svg version="1.0" xmlns="http://www.w3.org/2000/svg"
 width="1024.000000pt" height="1024.000000pt" viewBox="0 0 1024.000000 1024.000000"
 preserveAspectRatio="xMidYMid meet">

<g transform="translate(0.000000,1024.000000) scale(0.100000,-0.100000)"
fill="#000000" stroke="none">
<path d="M7932 7799 c-48 -14 -116 -86 -135 -144 -22 -64 -33 -197 -52 -630
-9 -198 -20 -364 -26 -370 -6 -6 -14 -4 -23 5 -8 8 -96 191 -196 405 -228 488
-273 576 -333 641 -125 137 -361 124 -436 -24 -33 -65 -40 -139 -51 -562 -6
-228 -15 -525 -21 -660 -22 -584 -23 -745 -5 -793 21 -54 49 -82 105 -102 92
-32 199 -9 254 56 58 67 61 87 82 619 15 361 26 480 45 480 25 0 72 -86 300
-545 148 -301 260 -516 281 -539 46 -53 105 -78 188 -78 138 -1 233 79 261
220 16 80 65 1597 58 1792 -4 130 -16 162 -75 207 -32 24 -46 28 -112 30 -42
1 -91 -2 -109 -8z"/>
<path d="M5634 7740 c-214 -56 -364 -198 -490 -464 -53 -112 -88 -232 -116
-396 -19 -105 -22 -165 -23 -375 0 -283 10 -354 72 -529 41 -113 44 -160 19
-226 -21 -53 -17 -122 9 -150 46 -51 161 -50 220 1 l34 30 93 -45 c110 -54
205 -72 340 -62 396 29 637 370 688 972 10 107 10 180 1 309 -17 245 -52 397
-127 551 l-35 70 36 60 c32 52 36 65 32 112 -5 65 -31 104 -79 116 -54 14
-103 0 -140 -39 -28 -30 -34 -33 -48 -20 -28 25 -164 85 -219 95 -80 15 -187
11 -267 -10z m234 -430 c42 -26 43 -24 -70 -220 -49 -85 -146 -267 -215 -405
-71 -143 -132 -252 -140 -254 -14 -3 -15 10 -9 100 20 309 76 541 161 674 57
88 112 124 190 125 33 0 61 -7 83 -20z m196 -534 c14 -234 -26 -469 -107 -634
-64 -130 -126 -176 -239 -177 -57 0 -70 3 -92 24 -14 14 -26 33 -26 43 0 21
170 365 308 623 97 182 129 235 141 235 4 0 11 -51 15 -114z"/>
<path d="M2650 7714 c-138 -27 -258 -93 -362 -202 -152 -159 -249 -379 -304
-687 -23 -129 -29 -479 -11 -610 31 -218 107 -410 211 -536 129 -157 268 -219
496 -219 205 0 333 51 466 184 162 164 240 367 251 652 9 250 -7 307 -102 354
-48 23 -56 24 -265 25 -241 0 -271 -6 -319 -60 -40 -46 -54 -102 -49 -202 3
-80 4 -84 41 -120 l37 -38 103 -1 102 0 3 -50 c8 -118 -64 -240 -159 -268 -63
-19 -147 -7 -198 29 -40 27 -91 105 -115 173 -71 202 -67 564 10 830 55 188
126 292 213 311 26 5 56 8 67 6 10 -2 31 -6 46 -9 34 -8 84 -50 104 -88 8 -16
21 -68 29 -114 24 -147 76 -190 221 -182 97 5 143 29 177 92 19 35 22 56 21
151 0 124 -16 193 -67 290 -61 116 -199 228 -334 271 -47 15 -262 27 -313 18z"/>
<path d="M3715 7711 c-53 -13 -76 -32 -95 -74 -16 -38 -18 -95 -24 -587 -4
-300 -9 -563 -11 -585 -9 -93 -27 -834 -21 -867 8 -46 58 -95 111 -109 22 -6
74 -9 116 -7 90 5 140 31 168 87 26 50 29 81 42 441 11 299 17 360 37 360 5 0
22 -30 37 -67 44 -107 168 -349 237 -463 114 -190 207 -291 295 -321 43 -15
144 -18 186 -6 44 12 105 74 118 119 21 80 11 102 -173 368 -116 168 -287 487
-274 509 3 4 32 18 64 29 177 65 301 207 349 398 22 90 22 265 -1 354 -27 108
-79 201 -146 263 -102 95 -221 137 -441 157 -129 11 -528 12 -574 1z m632
-439 c53 -28 80 -62 99 -130 33 -111 -3 -249 -81 -307 -75 -58 -282 -89 -316
-48 -21 25 -20 472 1 498 13 15 29 17 135 13 98 -4 128 -8 162 -26z"/>
<path d="M7500 5296 c-212 -59 -370 -264 -451 -583 -53 -211 -64 -312 -64
-613 0 -225 3 -291 18 -363 75 -370 266 -557 567 -557 272 1 459 146 526 410
25 96 23 208 -4 251 -28 45 -54 60 -120 69 -115 15 -183 -20 -208 -108 -38
-130 -77 -174 -162 -179 -79 -5 -114 18 -153 100 -44 95 -53 160 -53 387 0
280 23 440 84 603 48 128 128 186 213 156 62 -22 78 -51 86 -163 12 -151 41
-178 188 -174 103 3 135 18 165 79 38 73 14 331 -41 454 -53 116 -151 194
-286 230 -71 18 -240 19 -305 1z"/>
<path d="M4970 5256 c-41 -27 -128 -129 -217 -254 -223 -312 -363 -656 -363
-891 0 -225 88 -370 287 -476 121 -64 121 -67 94 -229 -28 -166 -28 -189 5
-215 24 -19 40 -21 159 -21 119 0 135 2 159 21 32 26 33 44 5 236 -15 106 -18
147 -10 157 6 8 46 34 89 59 142 82 245 225 289 402 27 109 24 349 -6 484 -51
234 -151 447 -308 657 -74 99 -117 115 -183 70z m51 -638 c-7 -123 -13 -238
-14 -255 -2 -18 -2 -33 -1 -33 1 0 43 63 93 140 93 142 118 164 139 123 14
-26 6 -40 -131 -237 l-125 -180 -6 -90 c-3 -50 -9 -125 -13 -166 l-6 -75 34
42 c19 22 72 89 119 147 47 58 93 109 104 112 26 8 50 -19 43 -48 -4 -13 -74
-102 -158 -198 -124 -144 -156 -175 -177 -175 -21 0 -50 27 -150 140 -137 155
-155 182 -141 208 22 38 52 18 159 -106 l105 -122 6 100 c3 56 9 130 13 165
l7 65 -111 160 c-60 87 -110 163 -110 168 0 20 22 47 40 47 17 0 40 -28 154
-190 15 -23 29 -40 31 -38 2 2 8 91 14 198 16 279 20 309 43 332 18 18 22 19
36 5 14 -14 14 -40 3 -239z"/>
<path d="M8490 5271 c-31 -4 -73 -16 -93 -26 -81 -38 -96 -95 -107 -400 -50
-1359 -52 -1441 -42 -1499 12 -63 36 -97 81 -116 20 -8 135 -10 389 -8 348 3
362 4 389 24 47 35 66 79 71 163 9 151 -28 231 -114 252 -22 4 -113 9 -204 9
-192 0 -205 5 -215 73 -7 50 10 250 24 276 17 31 60 40 203 43 119 3 141 6
165 24 50 37 64 78 61 179 -6 165 -35 187 -261 195 -116 4 -150 8 -158 20 -13
19 -4 294 12 339 6 18 21 36 34 41 12 4 87 11 166 14 196 9 224 13 258 42 37
30 55 103 49 188 -7 85 -29 123 -84 148 -41 18 -72 20 -307 23 -144 2 -287 0
-317 -4z"/>
<path d="M6628 5261 c-20 -4 -48 -15 -63 -25 -52 -34 -55 -54 -73 -547 -10
-252 -20 -461 -24 -464 -9 -10 -60 120 -174 447 -163 465 -180 500 -268 546
-46 24 -62 26 -161 27 -93 0 -115 -3 -145 -20 -67 -39 -66 -31 -84 -640 -16
-515 -26 -795 -42 -1145 -10 -229 16 -265 188 -263 101 1 143 19 170 71 18 37
20 65 43 627 9 203 19 373 24 378 27 27 28 26 301 -733 84 -233 111 -283 164
-305 96 -40 230 -25 283 31 43 46 51 94 63 374 14 323 48 1055 61 1285 12 224
7 276 -30 316 -38 42 -136 58 -233 40z"/>
<path d="M1203 5250 c-54 -12 -97 -44 -117 -85 -16 -33 -21 -73 -27 -259 -5
-122 -15 -414 -24 -651 -8 -236 -20 -544 -26 -684 -15 -347 -8 -384 79 -424
43 -20 63 -22 242 -22 210 1 305 12 412 49 232 81 373 285 386 559 10 230 -56
369 -221 466 -26 15 -43 31 -39 37 4 6 27 24 52 41 132 91 199 220 207 403 16
330 -161 526 -512 569 -100 12 -363 13 -412 1z m408 -402 c89 -30 133 -95 132
-195 -1 -126 -69 -200 -205 -223 -97 -17 -102 -12 -106 85 -4 108 13 312 28
330 15 18 102 20 151 3z m28 -875 c41 -21 62 -40 79 -70 65 -119 18 -296 -91
-343 -54 -23 -164 -34 -201 -20 l-29 10 8 213 c4 116 11 220 17 231 16 29 143
17 217 -21z"/>
<path d="M2730 5238 c-94 -33 -134 -68 -175 -152 -32 -64 -51 -149 -201 -901
-91 -456 -166 -856 -166 -888 -2 -99 44 -135 178 -136 83 -1 128 12 166 47 37
34 44 61 68 247 26 208 26 208 151 217 125 10 186 2 204 -26 8 -12 19 -69 25
-127 27 -273 31 -286 94 -333 23 -18 42 -21 124 -21 113 0 152 13 177 59 25
47 19 119 -75 891 -16 132 -34 285 -40 340 -26 231 -72 535 -90 596 -42 142
-118 198 -279 205 -82 4 -106 1 -161 -18z m131 -604 c18 -78 70 -485 67 -527
l-3 -42 -85 -3 c-47 -2 -96 0 -109 3 -22 6 -23 9 -17 58 14 107 87 484 102
525 18 49 31 45 45 -14z"/>
<path d="M3653 5225 c-39 -17 -60 -48 -67 -100 -3 -22 -11 -200 -16 -395 -6
-195 -22 -587 -35 -870 -12 -283 -20 -535 -15 -560 14 -87 45 -121 120 -133
19 -3 181 -2 360 2 293 6 329 9 365 27 60 29 79 76 79 194 0 74 -4 104 -19
135 -33 67 -62 75 -262 75 -94 0 -183 4 -197 10 -39 15 -46 59 -35 238 15 262
49 1091 48 1187 0 122 -13 154 -69 183 -36 18 -60 22 -135 22 -54 -1 -103 -6
-122 -15z"/>
</g>
</svg>
